<?xml version="1.0" encoding="UTF-8"?>
<svg xmlns="http://www.w3.org/2000/svg" width="64" height="64" viewBox="0 0 64 64" fill="none">
  <path d="M32 4C16.536 4 4 16.536 4 32C4 47.464 16.536 60 32 60C47.464 60 60 47.464 60 32C60 16.536 47.464 4 32 4ZM32 56C18.745 56 8 45.255 8 32C8 18.745 18.745 8 32 8C45.255 8 56 18.745 56 32C56 45.255 45.255 56 32 56Z" fill="#0056B3"/>
  <path d="M44 20H20C18.9 20 18 20.9 18 22V42C18 43.1 18.9 44 20 44H44C45.1 44 46 43.1 46 42V22C46 20.9 45.1 20 44 20ZM42 40H22V24H42V40Z" fill="#0056B3"/>
  <path d="M32 28L36 32L32 36L28 32L32 28Z" fill="#0056B3"/>
  <path d="M24 12H28V16H24V12Z" fill="#0056B3"/>
  <path d="M32 12H36V16H32V12Z" fill="#0056B3"/>
  <path d="M40 12H44V16H40V12Z" fill="#0056B3"/>
  <path d="M24 48H28V52H24V48Z" fill="#0056B3"/>
  <path d="M32 48H36V52H32V48Z" fill="#0056B3"/>
  <path d="M40 48H44V52H40V48Z" fill="#0056B3"/>
</svg>
