<?xml version="1.0" encoding="UTF-8"?>
<svg xmlns="http://www.w3.org/2000/svg" width="64" height="64" viewBox="0 0 64 64" fill="none">
  <path d="M32 4C16.536 4 4 16.536 4 32C4 47.464 16.536 60 32 60C47.464 60 60 47.464 60 32C60 16.536 47.464 4 32 4ZM32 56C18.745 56 8 45.255 8 32C8 18.745 18.745 8 32 8C45.255 8 56 18.745 56 32C56 45.255 45.255 56 32 56Z" fill="#0056B3"/>
  <path d="M32 16C23.164 16 16 23.164 16 32C16 40.836 23.164 48 32 48C40.836 48 48 40.836 48 32C48 23.164 40.836 16 32 16ZM32 44C25.373 44 20 38.627 20 32C20 25.373 25.373 20 32 20C38.627 20 44 25.373 44 32C44 38.627 38.627 44 32 44Z" fill="#0056B3"/>
  <path d="M32 24C27.582 24 24 27.582 24 32C24 36.418 27.582 40 32 40C36.418 40 40 36.418 40 32C40 27.582 36.418 24 32 24ZM32 36C29.791 36 28 34.209 28 32C28 29.791 29.791 28 32 28C34.209 28 36 29.791 36 32C36 34.209 34.209 36 32 36Z" fill="#0056B3"/>
  <path d="M32 12L34.5 16H29.5L32 12Z" fill="#0056B3"/>
  <path d="M32 52L29.5 48H34.5L32 52Z" fill="#0056B3"/>
  <path d="M52 32L48 34.5V29.5L52 32Z" fill="#0056B3"/>
  <path d="M12 32L16 29.5V34.5L12 32Z" fill="#0056B3"/>
</svg>
